<svg xmlns="http://www.w3.org/2000/svg" width="505" height="496" viewBox="0 0 505 496" version="1.1"><path d="M 268.208 206.750 C 266.450 208.278, 235.955 266.528, 234.414 271.302 C 233.892 272.918, 234.422 273.073, 239.521 272.802 L 245.210 272.500 253.176 257 C 257.557 248.475, 265.160 233.735, 270.071 224.245 C 274.982 214.755, 279 206.543, 279 205.995 C 279 204.255, 270.386 204.857, 268.208 206.750 M 220 222.390 C 216.975 223.656, 208.966 226.829, 202.203 229.441 L 189.906 234.189 190.203 239.694 L 190.500 245.199 208 252.095 C 217.625 255.888, 226.086 258.993, 226.802 258.996 C 228.711 259.002, 227.986 248.971, 226 247.888 C 225.175 247.439, 220 245.435, 214.500 243.435 C 209 241.435, 204.377 239.684, 204.227 239.544 C 204.078 239.403, 209.387 237.373, 216.026 235.032 L 228.097 230.776 227.798 225.716 C 227.634 222.934, 227.050 220.529, 226.500 220.372 C 225.950 220.215, 223.025 221.123, 220 222.390 M 285 225.500 C 285 228.525, 285.166 231, 285.369 231 C 286.014 231, 308.357 239.024, 308.719 239.385 C 308.909 239.576, 304.888 241.214, 299.782 243.027 C 284.894 248.313, 285 248.234, 285 254.026 C 285 257.344, 285.416 258.997, 286.250 258.990 C 286.938 258.984, 295.375 255.885, 305 252.102 L 322.500 245.224 322.797 240.273 C 322.991 237.023, 322.629 234.937, 321.743 234.201 C 320.249 232.962, 287.644 220, 286.020 220 C 285.450 220, 285 222.429, 285 225.500" stroke="none" fill="#0e459d" fill-rule="evenodd"/><path d="M 238 109.637 C 204.778 112.642, 180.024 119.184, 153.238 132.037 C 117.676 149.101, 89.209 170.747, 60.571 202.500 C 48.291 216.116, 34 235.204, 34 237.990 C 34 241.942, 55.376 268.799, 69.352 282.408 C 100.454 312.692, 135.246 334.638, 176.500 349.993 L 190.500 355.204 208.500 354.085 C 237.527 352.282, 258.313 348.377, 281 340.465 C 291.951 336.646, 314.405 325.944, 317 323.306 C 318.342 321.942, 317.869 321.851, 312.500 322.441 L 306.500 323.100 312.741 319.081 C 326.750 310.060, 342.978 291.274, 349.600 276.414 C 356.576 260.760, 358.518 251.288, 358.401 233.500 C 358.322 221.626, 357.866 216.900, 356.211 210.825 C 351.312 192.841, 343.075 178.302, 330.044 164.634 C 321.690 155.873, 321.700 155.868, 336 161.689 C 356.066 169.856, 378.503 183.213, 396.500 197.706 C 410.834 209.249, 421.374 219.836, 434.759 236.135 C 435.931 237.563, 435.066 239.070, 427.925 248.034 C 423.427 253.679, 414.053 263.968, 407.093 270.899 C 355.592 322.180, 285.731 356.551, 216.707 364.568 C 207.454 365.643, 210.328 367.328, 224.577 369.181 C 276.874 375.982, 329.294 363.724, 382 332.370 C 400.370 321.441, 420.614 305.135, 439.155 286.333 C 456.142 269.107, 462.979 261.101, 473.172 246.500 C 479.483 237.460, 479.467 237.539, 476.026 232.538 C 466.283 218.377, 446.880 196.705, 432.631 184.069 C 404.576 159.189, 378.370 142.740, 345.500 129.378 L 333.500 124.500 311.500 124.657 C 268.610 124.964, 233.816 132.484, 204.690 147.742 C 184.735 158.195, 166.819 180.241, 158.920 204.061 C 145.071 245.827, 161.954 293.211, 199.557 318.113 C 203.085 320.450, 205.823 322.511, 205.640 322.693 C 205.458 322.875, 201.302 321.864, 196.406 320.445 C 166.056 311.650, 130.618 291.954, 106.500 270.478 C 93.132 258.574, 77 240.901, 77 238.158 C 77 236.005, 93.251 216.803, 104.686 205.446 C 154.018 156.450, 214.991 125.453, 282.750 114.922 C 287.288 114.217, 291 113.321, 291 112.931 C 291 110.440, 254.325 108.160, 238 109.637 M 245.500 152.986 C 230.484 155.047, 213.905 162.193, 202.833 171.377 C 157.274 209.167, 165.426 280.935, 218.288 307.421 C 231.607 314.095, 240.612 316.158, 256.500 316.177 C 272.083 316.195, 280.893 314.199, 294.500 307.569 C 316.614 296.793, 332.846 276.108, 338.106 252 C 340.548 240.809, 340.310 223.481, 337.579 213.500 C 328.153 179.060, 297.391 154.517, 261.330 152.667 C 255.923 152.390, 248.800 152.534, 245.500 152.986" stroke="none" fill="#434a4b" fill-rule="evenodd"/></svg>